<svg xmlns="http://www.w3.org/2000/svg" viewBox="0 0 340 340" fill="currentColor" role="img" aria-label="BestInsurance Research" data-head-x="286.3" data-head-y="173.4">
  <title>BestInsurance Research</title>
  <path class="mk-head" d="M273.5 151.5L277.5 152.5L311.5 173.5L273.5 195.5L273.5 152.5Z" />
  <circle class="mk-dot" data-i="0" data-t="0.800" cx="106.9" cy="65.0" r="7.14" />
  <circle class="mk-dot" data-i="1" data-t="1.000" cx="40.6" cy="81.9" r="7.36" />
  <circle class="mk-dot" data-i="2" data-t="0.656" cx="133.7" cy="94.2" r="6.77" />
  <circle class="mk-dot" data-i="3" data-t="0.809" cx="83.0" cy="112.8" r="7.16" />
  <circle class="mk-dot" data-i="4" data-t="0.548" cx="155.7" cy="113.3" r="6.58" />
  <circle class="mk-dot" data-i="5" data-t="0.439" cx="181.0" cy="126.8" r="6.10" />
  <circle class="mk-dot" data-i="6" data-t="0.672" cx="116.1" cy="127.5" r="6.82" />
  <circle class="mk-dot" data-i="7" data-t="0.928" cx="47.4" cy="127.9" r="7.18" />
  <circle class="mk-dot" data-i="8" data-t="0.337" cx="203.9" cy="141.6" r="5.94" />
  <circle class="mk-dot" data-i="9" data-t="0.524" cx="151.6" cy="146.3" r="6.36" />
  <circle class="mk-dot" data-i="10" data-t="0.430" cx="177.0" cy="146.3" r="6.10" />
  <circle class="mk-dot" data-i="11" data-t="0.259" cx="222.0" cy="151.9" r="5.32" />
  <circle class="mk-dot" data-i="12" data-t="0.179" cx="241.2" cy="160.0" r="5.14" />
  <circle class="mk-dot" data-i="13" data-t="0.359" cx="192.8" cy="161.5" r="6.02" />
  <circle class="mk-dot" data-i="14" data-t="0.101" cx="260.7" cy="166.6" r="4.55" />
  <circle class="mk-dot" data-i="15" data-t="0.248" cx="221.5" cy="166.7" r="4.95" />
  <circle class="mk-dot" data-i="16" data-t="0.779" cx="82.1" cy="171.5" r="7.20" />
  <circle class="mk-dot" data-i="17" data-t="0.615" cx="125.0" cy="171.6" r="7.14" />
  <circle class="mk-dot" data-i="18" data-t="0.452" cx="167.8" cy="171.8" r="6.36" />
  <circle class="mk-dot" data-i="19" data-t="0.950" cx="37.3" cy="171.9" r="7.05" />
  <circle class="mk-dot" data-i="20" data-t="0.172" cx="241.3" cy="173.5" r="5.56" />
  <circle class="mk-dot" data-i="21" data-t="0.248" cx="221.5" cy="179.0" r="2.88" />
  <circle class="mk-dot" data-i="22" data-t="0.101" cx="260.6" cy="180.0" r="4.62" />
  <circle class="mk-dot" data-i="23" data-t="0.316" cx="204.0" cy="182.9" r="6.02" />
  <circle class="mk-dot" data-i="24" data-t="0.179" cx="241.1" cy="186.1" r="5.20" />
  <circle class="mk-dot" data-i="25" data-t="0.405" cx="182.0" cy="193.0" r="6.15" />
  <circle class="mk-dot" data-i="26" data-t="0.256" cx="222.4" cy="193.9" r="5.70" />
  <circle class="mk-dot" data-i="27" data-t="0.526" cx="150.5" cy="196.8" r="6.53" />
  <circle class="mk-dot" data-i="28" data-t="0.337" cx="203.5" cy="203.9" r="5.78" />
  <circle class="mk-dot" data-i="29" data-t="0.922" cx="48.0" cy="212.9" r="7.29" />
  <circle class="mk-dot" data-i="30" data-t="0.686" cx="110.8" cy="213.0" r="7.07" />
  <circle class="mk-dot" data-i="31" data-t="0.422" cx="183.2" cy="213.6" r="5.67" />
  <circle class="mk-dot" data-i="32" data-t="0.501" cx="164.7" cy="223.1" r="6.79" />
  <circle class="mk-dot" data-i="33" data-t="0.611" cx="139.0" cy="236.2" r="7.02" />
  <circle class="mk-dot" data-i="34" data-t="0.813" cx="83.2" cy="238.3" r="7.14" />
  <circle class="mk-dot" data-i="35" data-t="0.990" cx="41.6" cy="259.9" r="7.25" />
  <circle class="mk-dot" data-i="36" data-t="0.786" cx="106.9" cy="274.9" r="7.18" />
</svg>